<?xml version="1.0" encoding="UTF-8"?>
<!DOCTYPE svg PUBLIC "-//W3C//DTD SVG 1.1//EN" "http://www.w3.org/Graphics/SVG/1.1/DTD/svg11.dtd">
<!-- Creator: CorelDRAW 2020 (64 Bit) -->
<svg xmlns="http://www.w3.org/2000/svg" xml:space="preserve" width="34.3077mm" height="54.8242mm" version="1.1" style="shape-rendering:geometricPrecision; text-rendering:geometricPrecision; image-rendering:optimizeQuality; fill-rule:evenodd; clip-rule:evenodd"
viewBox="0 0 904.81 1445.89"
 xmlns:xlink="http://www.w3.org/1999/xlink"
 xmlns:xodm="http://www.corel.com/coreldraw/odm/2003">
 <defs>
  <style type="text/css">
   <![CDATA[
    .fil0 {fill:#FEFEFE}
   ]]>
  </style>
 </defs>
 <g id="Camada_x0020_1">
  <metadata id="CorelCorpID_0Corel-Layer"/>
  <path class="fil0" d="M199.46 579.47l0 -163.48c-22.23,-11.07 -37.51,-34.02 -37.51,-60.54 0,-37.33 30.27,-67.6 67.6,-67.6 37.33,0 67.6,30.27 67.6,67.6 0,25.47 -14.09,47.64 -34.89,59.17l0 164.86 47.1 0 0 -333.6c-23.17,-10.72 -39.25,-34.17 -39.25,-61.38 0,-37.33 30.27,-67.6 67.6,-67.6 37.33,0 67.6,30.27 67.6,67.6 0,24.75 -13.3,46.39 -33.14,58.17l0 336.82 50.59 0 0 -452.22c-21.28,-11.38 -35.76,-33.82 -35.76,-59.65 0,-37.33 30.27,-67.6 67.6,-67.6 37.33,0 67.6,30.27 67.6,67.6 0,26.17 -14.87,48.87 -36.63,60.1l0 451.76 47.1 0 0 -205.3c-18.88,-11.99 -31.41,-33.08 -31.41,-57.1 0,-37.33 30.27,-67.6 67.6,-67.6 37.33,0 67.6,30.27 67.6,67.6 0,27.89 -16.89,51.83 -40.99,62.16l0 200.24 55.82 0 0 -290.4c-21.76,-11.23 -36.64,-33.93 -36.64,-60.1 0,-37.33 30.27,-67.6 67.6,-67.6 37.33,0 67.6,30.27 67.6,67.6 0,25.82 -14.48,48.26 -35.76,59.64l0 290.86 34.89 0c20.55,0 37.22,16.66 37.22,37.22l0 285.51 81.41 0c20.55,0 37.22,16.66 37.22,37.22l0 469.27c0,20.55 -16.66,37.22 -37.22,37.22 -20.55,0 -37.22,-16.66 -37.22,-37.22l0 -432.05 -398.91 0c-20.55,0 -37.22,-16.66 -37.22,-37.22 0,-20.55 16.66,-37.22 37.22,-37.22l280.28 0 0 -248.3 -509.97 0 0 246.56 55.24 0c20.55,0 37.22,16.66 37.22,37.22 0,20.55 -16.66,37.22 -37.22,37.22l-182.59 0 0 418.1c0,20.55 -16.66,37.22 -37.22,37.22 -20.55,0 -37.22,-16.66 -37.22,-37.22l0 -455.31c0,-20.55 16.66,-37.22 37.22,-37.22l90.13 0 0 -283.77c0,-20.55 16.66,-37.22 37.22,-37.22l34.89 0z"/>
 </g>
</svg>
