<?xml version="1.0" encoding="UTF-8"?>
<!DOCTYPE svg PUBLIC "-//W3C//DTD SVG 1.1//EN" "http://www.w3.org/Graphics/SVG/1.1/DTD/svg11.dtd">
<!-- Creator: CorelDRAW 2020 (64 Bit) -->
<svg xmlns="http://www.w3.org/2000/svg" xml:space="preserve" width="42.418mm" height="42.4481mm" version="1.1" style="shape-rendering:geometricPrecision; text-rendering:geometricPrecision; image-rendering:optimizeQuality; fill-rule:evenodd; clip-rule:evenodd"
viewBox="0 0 1413.21 1414.22"
 xmlns:xlink="http://www.w3.org/1999/xlink"
 xmlns:xodm="http://www.corel.com/coreldraw/odm/2003">
 <defs>
  <style type="text/css">
   <![CDATA[
    .fil0 {fill:#FDFDFD}
   ]]>
  </style>
 </defs>
 <g id="Camada_x0020_1">
  <metadata id="CorelCorpID_0Corel-Layer"/>
  <g id="_2205517489616">
   <path class="fil0" d="M885.73 389.27c0,-47.11 9.09,-86.3 43.12,-114.84 121.41,-101.8 294.57,19.03 235.03,167.33 -11.92,29.7 -43.04,59.07 -71.24,72.62 -21.52,10.34 -31.16,10.78 -59.12,14.45 -74.73,9.8 -147.8,-60.96 -147.8,-139.56zm-425.94 437.22c2.63,-3.59 15.95,-14.64 20.95,-18.54 34.06,-26.61 191.59,-170.18 230.2,-80.28 31.05,72.28 -95.42,176.99 -124.21,231.4 19.58,13.11 30.76,25.96 45.94,44.33 8.01,9.7 15,12.41 23.95,21.18 9.45,9.25 13.35,18.17 23.19,24.76 44.3,-10.32 124.11,-62.05 164.74,-89.13l99.53 -72.54c8.47,-6.85 15.08,-12.81 23.06,-19.26 9.44,-7.62 14.77,-12.94 24.59,-20.54l44.22 -40.4c15.16,-15.34 28.42,-28.57 43.73,-43.71 32.45,-32.08 85.93,-106.79 108.78,-145.09 11.49,-19.26 20.18,-36.37 31.75,-55.69 19.34,-32.31 65.57,-132.68 82.19,-174.5 32.73,-82.36 24.91,-63.84 -6.96,-95.81 -10.54,-10.58 -19.06,-19.06 -29.61,-29.62 -19.96,-19.96 -37.8,-37.98 -57.85,-57.8 -14.49,-14.32 -106.28,-114.97 -116.33,-114.97 -36.17,0 -216.9,88.68 -269.61,119.67 -42.14,24.77 -79.48,48.49 -117.66,76.98 -52.26,39 -59.11,53.69 -100.03,94.6 -72.36,72.36 -160.03,183.85 -206.62,278.55 -7.33,14.9 -28.12,48.69 -31.6,67.25 -1.64,8.72 1.46,11.38 16.75,26.58 9.21,9.15 16.27,16.19 25.43,25.34 16.77,16.78 32.13,34.29 51.48,47.25z"/>
   <path class="fil0" d="M-0 1283.46c0,35.09 4.73,77.19 10.24,105.41 2.57,13.18 0.81,11.52 13.72,14.48 160.75,36.9 331.4,-24.38 454.41,-121.06 50.21,-39.46 66.18,-66.31 102,-103.91l45.7 -58.66c6.72,-10.54 14.09,-22.77 19.88,-33.72 -8.3,-9.54 -20.67,-24.09 -31.03,-31.03l-79.63 83.97c-7.3,7.22 -13.36,11.27 -21.29,18.2 -7.15,6.25 -15.94,13.35 -23.7,18.6 -17.46,11.81 -32.73,22.17 -51.45,33.17 -86.65,50.9 -171.43,77.35 -278.07,77.35 -26.54,0 -36.67,-4.48 -36.67,-31.03 0,-72.5 33.27,-207.94 73.87,-270.27 11.61,-17.82 21.41,-33.73 32.77,-51.85 2.77,-4.42 4.73,-7.25 7.74,-12.01l7.21 -9.72c19.57,-20.78 48.12,-57.19 64.95,-70.45l47.59 -39.86c-3.42,-14.7 -13.65,-21.86 -26.09,-30.33 -4.84,-3.29 -1.2,-0.27 -4.94,-3.52l-116.02 92.72c-9.82,7.78 -18.12,15.02 -28.23,22.54 -12.67,9.42 -18.33,13.37 -27.82,25.78 -39.09,51.13 -48.22,51.14 -88.35,123.21 -38.63,69.38 -66.79,163.46 -66.79,251.96z"/>
   <path class="fil0" d="M284.9 1128.31c23.75,-1.98 87.9,-40.28 110.43,-55.99 29.01,-20.24 71.26,-49.86 96.2,-73.05l25.38 -22.57c38.61,-38.84 162.9,-170.95 162.9,-229.19 0,-11.19 -10.97,-14.1 -19.75,-14.1 -39.21,0 -114.78,68.15 -146.27,93.5 -35.56,28.63 -67.5,60.07 -98.47,93.35 -5.29,5.68 -5.24,6.88 -10.01,12.56 -40.13,47.76 -107.03,138.03 -120.42,195.51z"/>
   <path class="fil0" d="M919.58 375.16c0,63.17 43.1,118.47 98.73,118.47 37.12,0 57.72,-4.73 86.65,-29 72.67,-60.97 24.61,-198.07 -74.78,-192.97 -32.97,1.69 -56.73,14.18 -76.87,30.04 -16.26,12.8 -33.74,44.32 -33.74,73.46z"/>
   <path class="fil0" d="M1413.21 0c-21.3,0.47 -112.94,24.29 -138.2,31.04 -22.97,6.14 -43.56,11.22 -66.73,17.89 -20.51,5.9 -46.87,13.03 -63.04,21.59 9.73,14.53 183.68,191.05 197.45,200.27l21.38 -63.24c15.18,-53.19 44.75,-154.78 49.14,-207.55z"/>
   <path class="fil0" d="M121.29 750.33c7.23,-1.93 56.04,-47.63 67.69,-56.43 38.89,-29.41 91.4,-53.31 145.05,-63.68 40.91,-7.91 28.35,-7.14 46.19,-35.62 11.15,-17.8 22.76,-33.76 34.43,-50.2 11.83,-16.66 21.83,-33.55 34.29,-50.33 10.67,-14.36 25.21,-35.7 33.42,-51.2 -100.95,0 -204.5,76.42 -271.54,143.11 -44.44,44.21 -75.37,103.61 -89.52,164.35z"/>
   <path class="fil0" d="M662.89 1289.1c56.01,0 171.21,-84.97 204.73,-128.12 7.02,-9.04 11.17,-12.98 17.74,-21.75 6.39,-8.53 11.57,-16.32 17.33,-24.98 28.37,-42.74 67.67,-127.7 67.67,-183.38 -14.73,7.79 -83.7,60.18 -122.52,83.4 -10.35,6.2 -16.02,10.25 -26.07,16.24 -24.74,14.72 -33.31,13.32 -39.73,44.89 -12.83,63.09 -38.71,123.99 -78.96,169.27 -14.73,16.57 -27.41,25.38 -40.18,44.44z"/>
  </g>
 </g>
</svg>
