<?xml version="1.0" encoding="UTF-8"?>
<!DOCTYPE svg PUBLIC "-//W3C//DTD SVG 1.1//EN" "http://www.w3.org/Graphics/SVG/1.1/DTD/svg11.dtd">
<!-- Creator: CorelDRAW 2020 (64 Bit) -->
<svg xmlns="http://www.w3.org/2000/svg" xml:space="preserve" width="42.418mm" height="32.0608mm" version="1.1" style="shape-rendering:geometricPrecision; text-rendering:geometricPrecision; image-rendering:optimizeQuality; fill-rule:evenodd; clip-rule:evenodd"
viewBox="0 0 730.87 552.41"
 xmlns:xlink="http://www.w3.org/1999/xlink"
 xmlns:xodm="http://www.corel.com/coreldraw/odm/2003">
 <defs>
  <style type="text/css">
   <![CDATA[
    .fil0 {fill:#FDFDFD}
   ]]>
  </style>
 </defs>
 <g id="Camada_x0020_1">
  <metadata id="CorelCorpID_0Corel-Layer"/>
  <g id="_2205522172560">
   <path class="fil0" d="M96.28 416.74c-26.57,6.19 -73.64,12.82 -96.28,24.8l0 61.27c20.13,4.69 62.05,21.88 88.99,21.88 0,10.63 -2.75,27.72 14.59,27.72l328.23 -1.49c14.72,0.01 27.4,1.49 43.77,1.49l148.8 0c20.56,0 17.51,-13.75 17.51,-27.72 14.11,0 53.89,-10.38 69.12,-15.5 13.27,-4.45 18.22,-2.91 19.87,-9.18l0 -55.56c0,-11.05 -84.32,-24.93 -96.28,-27.72l63.57 -359.48c1.25,-8.16 3.53,-18.27 3.53,-25.64 0,-7.93 -10.41,-16.05 -18.97,-16.05 -19.78,0 -19.44,19.71 -22.73,37.09l-63.34 358.25c-9.24,0 -18.05,-0.82 -27.1,-2.08l-69.15 -6.71c-26.6,-0.65 -44.89,-2.9 -74.44,-2.88 -20.19,0.01 -38.17,-1.46 -59.81,-1.46 -21.64,0 -39.62,1.47 -59.81,1.46 -34.64,-0.02 -111.67,4.88 -143.8,9.37 -9.37,1.31 -18.6,2.3 -28.34,2.3 0,-7.68 -2.43,-17.45 -3.75,-25.42l-50.22 -280.94c-2.78,-16.82 -6.16,-33.72 -8.97,-50.84 -2.71,-16.53 -3.66,-38.14 -23.13,-38.14 -8.47,0 -14.89,5.94 -17.38,11.84 -4.23,10.01 8.06,66.43 10.44,78.25 13.41,66.32 24.6,138.51 36.96,206.67l14.12 77.79c1.17,5.96 3.85,19.79 4,26.63zm445.59 53.43l16.53 0c1.18,0 2.14,0.96 2.14,2.14l0 16.38c0,1.18 -0.96,2.14 -2.14,2.14l-16.53 0c-1.18,0 -2.14,-0.96 -2.14,-2.14l0 -16.38c0,-1.18 0.96,-2.14 2.14,-2.14zm-53 0l16.53 0c1.18,0 2.14,0.96 2.14,2.14l0 16.38c0,1.18 -0.96,2.14 -2.14,2.14l-16.53 0c-1.18,0 -2.14,-0.96 -2.14,-2.14l0 -16.38c0,-1.18 0.96,-2.14 2.14,-2.14zm-53 0l16.53 0c1.18,0 2.14,0.96 2.14,2.14l0 16.38c0,1.18 -0.96,2.14 -2.14,2.14l-16.53 0c-1.18,0 -2.14,-0.96 -2.14,-2.14l0 -16.38c0,-1.18 0.96,-2.14 2.14,-2.14zm-53 0l16.53 0c1.18,0 2.14,0.96 2.14,2.14l0 16.38c0,1.18 -0.96,2.14 -2.14,2.14l-16.53 0c-1.18,0 -2.14,-0.96 -2.14,-2.14l0 -16.38c0,-1.18 0.96,-2.14 2.14,-2.14zm-53 0l16.53 0c1.18,0 2.14,0.96 2.14,2.14l0 16.38c0,1.18 -0.96,2.14 -2.14,2.14l-16.53 0c-1.18,0 -2.14,-0.96 -2.14,-2.14l0 -16.38c0,-1.18 0.96,-2.14 2.14,-2.14zm-53 0l16.53 0c1.18,0 2.14,0.96 2.14,2.14l0 16.38c0,1.18 -0.96,2.14 -2.14,2.14l-16.53 0c-1.18,0 -2.14,-0.96 -2.14,-2.14l0 -16.38c0,-1.18 0.96,-2.14 2.14,-2.14zm-53 0l16.53 0c1.18,0 2.14,0.96 2.14,2.14l0 16.38c0,1.18 -0.96,2.14 -2.14,2.14l-16.53 0c-1.18,0 -2.14,-0.96 -2.14,-2.14l0 -16.38c0,-1.18 0.96,-2.14 2.14,-2.14zm-53 0l16.53 0c1.18,0 2.14,0.96 2.14,2.14l0 16.38c0,1.18 -0.96,2.14 -2.14,2.14l-16.53 0c-1.18,0 -2.14,-0.96 -2.14,-2.14l0 -16.38c0,-1.18 0.96,-2.14 2.14,-2.14z"/>
   <path class="fil0" d="M132.75 108.93c0,9.51 8.21,17.51 20.42,17.51 9.07,0 30.15,-21.28 42.1,-30.84 25.05,-20.03 66.07,-39.76 98.22,-47.67 85.69,-21.08 172.14,-4.75 241.27,47.03 19.35,14.5 30.93,31.47 44.39,31.47 10.59,0 18.96,-7.18 18.96,-17.51 0,-16.85 -26.81,-35.05 -39.8,-44.81 -31.72,-23.82 -76.37,-46.47 -116.9,-55.24 -74.42,-16.11 -147.43,-11.31 -215.3,22.73 -40.44,20.29 -42.2,23.8 -76.07,50.84 -7.14,5.7 -17.29,14.27 -17.29,26.48z"/>
   <path class="fil0" d="M199.86 171.66c0,13.75 5.74,21.88 20.42,21.88 17.18,0 33.49,-44.99 120.41,-59.03 5.57,-0.9 19.12,-2.26 24.03,-2.35 9.02,-0.16 36.01,4.02 44.94,6.21 25.83,6.36 49.4,17.34 70.33,33.25l14.12 12.14c7.55,6.41 7.64,9.77 19.4,9.77 14.92,0 28.02,-22.14 6.05,-39.61 -19.45,-15.47 -26.94,-23.38 -51.75,-35.78 -48.92,-24.45 -105.13,-30.28 -158.84,-16.81 -37.2,9.32 -68.23,27.78 -97.01,51.79 -4.76,3.97 -12.1,10.71 -12.1,18.53z"/>
   <path class="fil0" d="M265.5 241.69c0,9.24 15.18,31.03 37.57,9.85 34.97,-33.08 88.76,-32.06 124.03,-0.77 5.29,4.7 11.11,9.21 19.09,9.01 20.28,-0.51 36.01,-28.76 -19.73,-56.52 -12.07,-6.01 -27.55,-12.37 -42.99,-13.91 -31.45,-3.13 -66.77,2.97 -91.11,20.84 -8.71,6.4 -26.86,18.24 -26.86,31.49z"/>
   <path class="fil0" d="M338.45 304.42c0,19.54 6.55,32.09 29.18,32.09 11.77,0 24.8,-10.71 24.8,-21.88 0,-51.13 -53.98,-34.4 -53.98,-10.21z"/>
  </g>
 </g>
</svg>
