<?xml version="1.0" encoding="UTF-8"?>
<!DOCTYPE svg PUBLIC "-//W3C//DTD SVG 1.1//EN" "http://www.w3.org/Graphics/SVG/1.1/DTD/svg11.dtd">
<!-- Creator: CorelDRAW 2020 (64 Bit) -->
<svg xmlns="http://www.w3.org/2000/svg" xml:space="preserve" width="42.363mm" height="36.1712mm" version="1.1" style="shape-rendering:geometricPrecision; text-rendering:geometricPrecision; image-rendering:optimizeQuality; fill-rule:evenodd; clip-rule:evenodd"
viewBox="0 0 6790.41 5797.92"
 xmlns:xlink="http://www.w3.org/1999/xlink"
 xmlns:xodm="http://www.corel.com/coreldraw/odm/2003">
 <defs>
  <style type="text/css">
   <![CDATA[
    .fil0 {fill:#FCFCFC}
   ]]>
  </style>
 </defs>
 <g id="Camada_x0020_1">
  <metadata id="CorelCorpID_0Corel-Layer"/>
  <g id="_2205524242592">
   <path class="fil0" d="M6283.52 2130.68c0,61.84 45.33,142.55 66.28,205.16 23.42,70.02 42.11,131.52 63.7,207.71 204.45,721.01 73.96,1529.3 -384.7,2087.41 -128.91,156.88 -126.39,139.92 -257.81,271.47 -79.17,79.26 -205.93,177.87 -306.08,236.78 -266.95,157.02 -431.25,237.31 -755.5,316.62 -406.53,99.43 -977.45,74.21 -1380.54,-85.5 -369.84,-146.54 -553.6,-245.58 -857.14,-486.42 -36.87,-29.24 -113.77,-106.82 -164.62,-106.82 -146.63,0 -193.26,165.08 -104.46,253.76 23.55,23.48 14.23,10.48 38.28,29.57 19.17,15.21 23.79,21.78 43.18,38.25 137.91,117.06 386.69,281.25 547.76,361.52 139.24,69.41 262.19,133.36 413.25,183.9 149.65,50.04 316.33,99.65 487.59,123.1 702.28,96.16 1350.61,-31.3 1921.26,-411.79 1066.27,-710.94 1388.76,-1971.72 939.74,-3182.07 -53.75,-144.9 -61.92,-178.36 -188.05,-178.36 -73.19,0 -122.14,67.11 -122.14,135.7z"/>
   <path class="fil0" d="M5971.37 2442.84c0,99.24 108.58,422.43 108.58,963.56 0,566.29 -213.8,827.28 -566.55,1184.15 -71.94,72.8 -154.54,134.04 -237.89,196.4 -88.72,66.38 -180.33,117.11 -281.07,166.78 -561.11,276.6 -1234.47,209.63 -1791.85,-40.7l-257.62 -122.37c-96.08,0 -149.3,64.04 -149.3,162.86 0,98.21 132.83,141.07 203.57,176.43 285.22,142.53 547.15,223.88 882.83,270.73 223.88,31.24 482,30.39 692.81,-11.52 114.8,-22.83 197.3,-42.69 302.39,-77.6l515.99 -257.57c332.07,-220.03 773.47,-693.63 873.97,-1053.16 129.66,-463.83 122.72,-888.83 26.5,-1364.65 -24.12,-119.24 -38.47,-370.53 -235.21,-297.36 -63.84,23.72 -87.17,103.95 -87.17,104.01z"/>
   <path class="fil0" d="M4044.26 3582.83l-375.72 -302.85c-45.86,-36.93 -83.77,-71.14 -126.42,-104.29l-372.26 -306.32c-50.7,-40.3 -71.59,-73.69 -157.02,-73.69 -84.36,0 -270.12,149.5 -40.75,325.74l938.36 771.63c54.96,44.51 97.04,90.23 160.95,124.05l1868.83 -1890.41c111.71,-133.63 243.32,-255.78 367.03,-379.39 44.03,-44 125.54,-108.77 125.54,-186.61 0,-71.89 -79.86,-162.86 -149.28,-162.86 -113.02,0 -192.7,118.05 -308.75,234.11l-556.59 556.26c-279.32,301.99 -523.73,537.65 -820.9,834.81 -107.25,107.25 -461.93,498.81 -553.02,559.82z"/>
   <path class="fil0" d="M3609.96 122.14l475.01 0c0,659.97 113.65,311.78 -602.13,524.3 -283.23,84.09 -525.87,195.59 -765.93,346.9 -132.66,83.59 -599.78,380.55 -599.78,540.21 0,81.6 123.2,214.29 254.78,78.35 36.74,-37.96 46.77,-44.38 86.49,-76.36 345.41,-278.09 578.39,-448.3 1044.57,-597.55 771.29,-246.93 1505.74,-25.89 2125.28,436.55 65.27,48.71 106.1,104.72 193.84,104.72 68.24,0 135.72,-67.48 135.72,-135.7 0,-89.35 -80.51,-135.75 -133.84,-178.31 -185.3,-147.87 -382.17,-262.35 -594.47,-369.09 -287.42,-144.49 -692.97,-245.98 -1022.38,-253.32l0 -420.7 447.85 0 0 -122.14 -1045 0 0 122.14z"/>
   <path class="fil0" d="M2741.41 1587.84c0,102.68 50.68,149.28 149.28,149.28 62.11,0 98.74,-42.69 136.42,-67.15 42.56,-27.6 92.98,-57 135.57,-81.56 311.7,-179.75 707.75,-285.57 1098.7,-285.57 261.85,0 464.28,66.86 657.34,143.36 306.68,121.56 405.28,290.91 536.94,290.91 64.32,0 251.14,-122.22 21.58,-293.01l-247.71 -159.41c-137.11,-69.17 -118.71,-69.97 -285.49,-135.22 -646.9,-253.12 -1337.58,-118.65 -1926.75,198.54 -82.04,44.16 -275.88,134.1 -275.88,239.83z"/>
   <path class="fil0" d="M-0 3162.11c0,87.71 58.39,162.86 135.72,162.86l1994.98 0c171.5,0 202.27,-312.13 -27.15,-312.13l-1954.27 0c-79.3,0 -149.28,69.98 -149.28,149.28z"/>
   <path class="fil0" d="M583.57 2279.98c0,45.14 12.76,81.52 37.99,111.27 13.53,15.96 60.37,51.58 84.15,51.58l1981.41 0c180.84,0 180.84,-312.15 0,-312.15l-1954.27 0c-79.3,0 -149.28,70 -149.28,149.3z"/>
   <path class="fil0" d="M583.57 4057.82c0,71.02 60.62,149.28 135.7,149.28l1954.27 0c180.86,0 180.86,-312.13 0,-312.13l-1940.69 0c-84.78,0 -149.28,79.46 -149.28,162.86z"/>
  </g>
 </g>
</svg>
